<mxfile host="app.diagrams.net" agent="Mozilla/5.0 (Windows NT 10.0; Win64; x64) AppleWebKit/537.36 (KHTML, like Gecko) Chrome/140.0.0.0 Safari/537.36" version="28.2.5">
  <diagram name="หน้า-1" id="tF4rDSKhQeUAJo70jgkZ">
    <mxGraphModel dx="1491" dy="691" grid="1" gridSize="10" guides="1" tooltips="1" connect="1" arrows="1" fold="1" page="1" pageScale="1" pageWidth="827" pageHeight="1169" math="0" shadow="0">
      <root>
        <mxCell id="0" />
        <mxCell id="1" parent="0" />
        <mxCell id="gyfqeUNmZbh3x1LJD91C-1" value="" style="edgeStyle=orthogonalEdgeStyle;rounded=0;orthogonalLoop=1;jettySize=auto;html=1;" parent="1" source="jNO9P9iNt-Y6tSNq4RsI-1" target="jNO9P9iNt-Y6tSNq4RsI-2" edge="1">
          <mxGeometry relative="1" as="geometry" />
        </mxCell>
        <mxCell id="jNO9P9iNt-Y6tSNq4RsI-1" value="Start" style="ellipse;whiteSpace=wrap;html=1;" parent="1" vertex="1">
          <mxGeometry x="600" y="110" width="120" height="50" as="geometry" />
        </mxCell>
        <mxCell id="gyfqeUNmZbh3x1LJD91C-2" value="" style="edgeStyle=orthogonalEdgeStyle;rounded=0;orthogonalLoop=1;jettySize=auto;html=1;" parent="1" source="jNO9P9iNt-Y6tSNq4RsI-2" target="jNO9P9iNt-Y6tSNq4RsI-3" edge="1">
          <mxGeometry relative="1" as="geometry" />
        </mxCell>
        <mxCell id="jNO9P9iNt-Y6tSNq4RsI-2" value="ตั้งค่าเริ่มต้น&#xa;n, arr[100], i, j" style="whiteSpace=wrap;html=1;" parent="1" vertex="1">
          <mxGeometry x="560" y="220" width="200" height="60" as="geometry" />
        </mxCell>
        <mxCell id="gyfqeUNmZbh3x1LJD91C-3" value="" style="edgeStyle=orthogonalEdgeStyle;rounded=0;orthogonalLoop=1;jettySize=auto;html=1;" parent="1" source="jNO9P9iNt-Y6tSNq4RsI-3" target="jNO9P9iNt-Y6tSNq4RsI-4" edge="1">
          <mxGeometry relative="1" as="geometry" />
        </mxCell>
        <mxCell id="jNO9P9iNt-Y6tSNq4RsI-3" value="แสดง: Enter N :" style="shape=parallelogram;perimeter=parallelogramPerimeter;whiteSpace=wrap;html=1;" parent="1" vertex="1">
          <mxGeometry x="550" y="330" width="220" height="60" as="geometry" />
        </mxCell>
        <mxCell id="gyfqeUNmZbh3x1LJD91C-10" value="" style="edgeStyle=orthogonalEdgeStyle;rounded=0;orthogonalLoop=1;jettySize=auto;html=1;" parent="1" source="jNO9P9iNt-Y6tSNq4RsI-4" target="gyfqeUNmZbh3x1LJD91C-9" edge="1">
          <mxGeometry relative="1" as="geometry" />
        </mxCell>
        <mxCell id="jNO9P9iNt-Y6tSNq4RsI-4" value="รับค่า n (จำนวนเต็ม)" style="shape=parallelogram;perimeter=parallelogramPerimeter;whiteSpace=wrap;html=1;" parent="1" vertex="1">
          <mxGeometry x="550" y="440" width="220" height="60" as="geometry" />
        </mxCell>
        <mxCell id="gyfqeUNmZbh3x1LJD91C-5" value="" style="edgeStyle=orthogonalEdgeStyle;rounded=0;orthogonalLoop=1;jettySize=auto;html=1;" parent="1" source="jNO9P9iNt-Y6tSNq4RsI-5" target="jNO9P9iNt-Y6tSNq4RsI-6" edge="1">
          <mxGeometry relative="1" as="geometry" />
        </mxCell>
        <mxCell id="jNO9P9iNt-Y6tSNq4RsI-5" value="กำหนด i = 0" style="whiteSpace=wrap;html=1;" parent="1" vertex="1">
          <mxGeometry x="570" y="630" width="180" height="50" as="geometry" />
        </mxCell>
        <mxCell id="gyfqeUNmZbh3x1LJD91C-6" value="" style="edgeStyle=orthogonalEdgeStyle;rounded=0;orthogonalLoop=1;jettySize=auto;html=1;" parent="1" source="jNO9P9iNt-Y6tSNq4RsI-6" target="jNO9P9iNt-Y6tSNq4RsI-7" edge="1">
          <mxGeometry relative="1" as="geometry" />
        </mxCell>
        <mxCell id="K8t3-viRsdJDfLJTbKqf-1" value="จริง" style="edgeLabel;html=1;align=center;verticalAlign=middle;resizable=0;points=[];" parent="gyfqeUNmZbh3x1LJD91C-6" connectable="0" vertex="1">
          <mxGeometry x="-0.0877" relative="1" as="geometry">
            <mxPoint as="offset" />
          </mxGeometry>
        </mxCell>
        <mxCell id="gyfqeUNmZbh3x1LJD91C-17" style="edgeStyle=orthogonalEdgeStyle;rounded=0;orthogonalLoop=1;jettySize=auto;html=1;entryX=0.5;entryY=0;entryDx=0;entryDy=0;" parent="1" source="jNO9P9iNt-Y6tSNq4RsI-6" target="jNO9P9iNt-Y6tSNq4RsI-11" edge="1">
          <mxGeometry relative="1" as="geometry">
            <Array as="points">
              <mxPoint x="920" y="770" />
              <mxPoint x="920" y="1210" />
              <mxPoint x="660" y="1210" />
            </Array>
          </mxGeometry>
        </mxCell>
        <mxCell id="K8t3-viRsdJDfLJTbKqf-2" value="เท็จ" style="edgeLabel;html=1;align=center;verticalAlign=middle;resizable=0;points=[];" parent="gyfqeUNmZbh3x1LJD91C-17" connectable="0" vertex="1">
          <mxGeometry x="-0.8518" y="2" relative="1" as="geometry">
            <mxPoint as="offset" />
          </mxGeometry>
        </mxCell>
        <mxCell id="jNO9P9iNt-Y6tSNq4RsI-6" value="i &lt; n ?" style="rhombus;whiteSpace=wrap;html=1;" parent="1" vertex="1">
          <mxGeometry x="560" y="730" width="200" height="80" as="geometry" />
        </mxCell>
        <mxCell id="gyfqeUNmZbh3x1LJD91C-7" value="" style="edgeStyle=orthogonalEdgeStyle;rounded=0;orthogonalLoop=1;jettySize=auto;html=1;" parent="1" source="jNO9P9iNt-Y6tSNq4RsI-7" target="jNO9P9iNt-Y6tSNq4RsI-8" edge="1">
          <mxGeometry relative="1" as="geometry" />
        </mxCell>
        <mxCell id="jNO9P9iNt-Y6tSNq4RsI-7" value="แสดง: Enter value[i] :" style="shape=parallelogram;perimeter=parallelogramPerimeter;whiteSpace=wrap;html=1;" parent="1" vertex="1">
          <mxGeometry x="510" y="860" width="300" height="60" as="geometry" />
        </mxCell>
        <mxCell id="gyfqeUNmZbh3x1LJD91C-8" value="" style="edgeStyle=orthogonalEdgeStyle;rounded=0;orthogonalLoop=1;jettySize=auto;html=1;" parent="1" source="jNO9P9iNt-Y6tSNq4RsI-8" target="jNO9P9iNt-Y6tSNq4RsI-9" edge="1">
          <mxGeometry relative="1" as="geometry" />
        </mxCell>
        <mxCell id="jNO9P9iNt-Y6tSNq4RsI-8" value="รับค่า arr[i]" style="shape=parallelogram;perimeter=parallelogramPerimeter;whiteSpace=wrap;html=1;" parent="1" vertex="1">
          <mxGeometry x="510" y="980" width="300" height="60" as="geometry" />
        </mxCell>
        <mxCell id="gyfqeUNmZbh3x1LJD91C-15" style="edgeStyle=orthogonalEdgeStyle;rounded=0;orthogonalLoop=1;jettySize=auto;html=1;entryX=0;entryY=0.5;entryDx=0;entryDy=0;exitX=0.5;exitY=1;exitDx=0;exitDy=0;" parent="1" source="jNO9P9iNt-Y6tSNq4RsI-9" target="gyfqeUNmZbh3x1LJD91C-9" edge="1">
          <mxGeometry relative="1" as="geometry">
            <Array as="points">
              <mxPoint x="660" y="1190" />
              <mxPoint x="440" y="1190" />
              <mxPoint x="440" y="560" />
            </Array>
          </mxGeometry>
        </mxCell>
        <mxCell id="jNO9P9iNt-Y6tSNq4RsI-9" value="i = i + 1" style="whiteSpace=wrap;html=1;" parent="1" vertex="1">
          <mxGeometry x="570" y="1100" width="180" height="50" as="geometry" />
        </mxCell>
        <mxCell id="gyfqeUNmZbh3x1LJD91C-20" value="" style="edgeStyle=orthogonalEdgeStyle;rounded=0;orthogonalLoop=1;jettySize=auto;html=1;" parent="1" source="jNO9P9iNt-Y6tSNq4RsI-10" target="jNO9P9iNt-Y6tSNq4RsI-12" edge="1">
          <mxGeometry relative="1" as="geometry" />
        </mxCell>
        <mxCell id="jNO9P9iNt-Y6tSNq4RsI-10" value="กำหนด i = 0" style="whiteSpace=wrap;html=1;" parent="1" vertex="1">
          <mxGeometry x="570" y="1360" width="180" height="50" as="geometry" />
        </mxCell>
        <mxCell id="gyfqeUNmZbh3x1LJD91C-19" value="" style="edgeStyle=orthogonalEdgeStyle;rounded=0;orthogonalLoop=1;jettySize=auto;html=1;" parent="1" source="jNO9P9iNt-Y6tSNq4RsI-11" target="jNO9P9iNt-Y6tSNq4RsI-10" edge="1">
          <mxGeometry relative="1" as="geometry" />
        </mxCell>
        <mxCell id="jNO9P9iNt-Y6tSNq4RsI-11" value="แสดง: Index:" style="shape=parallelogram;perimeter=parallelogramPerimeter;whiteSpace=wrap;html=1;" parent="1" vertex="1">
          <mxGeometry x="570" y="1250" width="180" height="50" as="geometry" />
        </mxCell>
        <mxCell id="gyfqeUNmZbh3x1LJD91C-21" value="" style="edgeStyle=orthogonalEdgeStyle;rounded=0;orthogonalLoop=1;jettySize=auto;html=1;" parent="1" source="jNO9P9iNt-Y6tSNq4RsI-12" target="jNO9P9iNt-Y6tSNq4RsI-13" edge="1">
          <mxGeometry relative="1" as="geometry" />
        </mxCell>
        <mxCell id="K8t3-viRsdJDfLJTbKqf-4" value="จริง" style="edgeLabel;html=1;align=center;verticalAlign=middle;resizable=0;points=[];" parent="gyfqeUNmZbh3x1LJD91C-21" connectable="0" vertex="1">
          <mxGeometry x="-0.1259" y="1" relative="1" as="geometry">
            <mxPoint as="offset" />
          </mxGeometry>
        </mxCell>
        <mxCell id="gyfqeUNmZbh3x1LJD91C-46" style="edgeStyle=orthogonalEdgeStyle;rounded=0;orthogonalLoop=1;jettySize=auto;html=1;entryX=1;entryY=0.5;entryDx=0;entryDy=0;" parent="1" source="jNO9P9iNt-Y6tSNq4RsI-12" target="gyfqeUNmZbh3x1LJD91C-25" edge="1">
          <mxGeometry relative="1" as="geometry">
            <Array as="points">
              <mxPoint x="900" y="1500" />
              <mxPoint x="900" y="1810" />
            </Array>
          </mxGeometry>
        </mxCell>
        <mxCell id="K8t3-viRsdJDfLJTbKqf-11" value="เท็จ" style="edgeLabel;html=1;align=center;verticalAlign=middle;resizable=0;points=[];" parent="gyfqeUNmZbh3x1LJD91C-46" connectable="0" vertex="1">
          <mxGeometry x="-0.7789" y="-1" relative="1" as="geometry">
            <mxPoint as="offset" />
          </mxGeometry>
        </mxCell>
        <mxCell id="jNO9P9iNt-Y6tSNq4RsI-12" value="i &lt; n ?" style="rhombus;whiteSpace=wrap;html=1;" parent="1" vertex="1">
          <mxGeometry x="560" y="1460" width="200" height="80" as="geometry" />
        </mxCell>
        <mxCell id="gyfqeUNmZbh3x1LJD91C-22" value="" style="edgeStyle=orthogonalEdgeStyle;rounded=0;orthogonalLoop=1;jettySize=auto;html=1;" parent="1" source="jNO9P9iNt-Y6tSNq4RsI-13" target="jNO9P9iNt-Y6tSNq4RsI-14" edge="1">
          <mxGeometry relative="1" as="geometry" />
        </mxCell>
        <mxCell id="jNO9P9iNt-Y6tSNq4RsI-13" value="พิมพ์ค่า i ต่อท้าย" style="shape=parallelogram;perimeter=parallelogramPerimeter;whiteSpace=wrap;html=1;" parent="1" vertex="1">
          <mxGeometry x="550" y="1580" width="220" height="60" as="geometry" />
        </mxCell>
        <mxCell id="gyfqeUNmZbh3x1LJD91C-23" value="" style="edgeStyle=orthogonalEdgeStyle;rounded=0;orthogonalLoop=1;jettySize=auto;html=1;" parent="1" source="gyfqeUNmZbh3x1LJD91C-25" edge="1">
          <mxGeometry relative="1" as="geometry">
            <mxPoint x="660" y="1800" as="targetPoint" />
          </mxGeometry>
        </mxCell>
        <mxCell id="jNO9P9iNt-Y6tSNq4RsI-14" value="i = i + 1" style="whiteSpace=wrap;html=1;" parent="1" vertex="1">
          <mxGeometry x="570" y="1690" width="180" height="50" as="geometry" />
        </mxCell>
        <mxCell id="gyfqeUNmZbh3x1LJD91C-28" value="" style="edgeStyle=orthogonalEdgeStyle;rounded=0;orthogonalLoop=1;jettySize=auto;html=1;" parent="1" source="jNO9P9iNt-Y6tSNq4RsI-16" target="jNO9P9iNt-Y6tSNq4RsI-17" edge="1">
          <mxGeometry relative="1" as="geometry" />
        </mxCell>
        <mxCell id="jNO9P9iNt-Y6tSNq4RsI-16" value="แสดง: Array:" style="shape=parallelogram;perimeter=parallelogramPerimeter;whiteSpace=wrap;html=1;" parent="1" vertex="1">
          <mxGeometry x="560" y="1860" width="200" height="50" as="geometry" />
        </mxCell>
        <mxCell id="gyfqeUNmZbh3x1LJD91C-29" value="" style="edgeStyle=orthogonalEdgeStyle;rounded=0;orthogonalLoop=1;jettySize=auto;html=1;" parent="1" source="jNO9P9iNt-Y6tSNq4RsI-17" target="jNO9P9iNt-Y6tSNq4RsI-18" edge="1">
          <mxGeometry relative="1" as="geometry" />
        </mxCell>
        <mxCell id="jNO9P9iNt-Y6tSNq4RsI-17" value="กำหนด i = 0" style="whiteSpace=wrap;html=1;" parent="1" vertex="1">
          <mxGeometry x="570" y="1980" width="180" height="50" as="geometry" />
        </mxCell>
        <mxCell id="gyfqeUNmZbh3x1LJD91C-30" value="" style="edgeStyle=orthogonalEdgeStyle;rounded=0;orthogonalLoop=1;jettySize=auto;html=1;" parent="1" source="jNO9P9iNt-Y6tSNq4RsI-18" target="jNO9P9iNt-Y6tSNq4RsI-19" edge="1">
          <mxGeometry relative="1" as="geometry" />
        </mxCell>
        <mxCell id="K8t3-viRsdJDfLJTbKqf-5" value="จริง" style="edgeLabel;html=1;align=center;verticalAlign=middle;resizable=0;points=[];" parent="gyfqeUNmZbh3x1LJD91C-30" connectable="0" vertex="1">
          <mxGeometry x="-0.237" y="-1" relative="1" as="geometry">
            <mxPoint as="offset" />
          </mxGeometry>
        </mxCell>
        <mxCell id="gyfqeUNmZbh3x1LJD91C-49" style="edgeStyle=orthogonalEdgeStyle;rounded=0;orthogonalLoop=1;jettySize=auto;html=1;entryX=1;entryY=0.5;entryDx=0;entryDy=0;" parent="1" source="jNO9P9iNt-Y6tSNq4RsI-18" target="gyfqeUNmZbh3x1LJD91C-48" edge="1">
          <mxGeometry relative="1" as="geometry">
            <Array as="points">
              <mxPoint x="840" y="2140" />
              <mxPoint x="840" y="2340" />
            </Array>
          </mxGeometry>
        </mxCell>
        <mxCell id="K8t3-viRsdJDfLJTbKqf-12" value="เท็จ" style="edgeLabel;html=1;align=center;verticalAlign=middle;resizable=0;points=[];" parent="gyfqeUNmZbh3x1LJD91C-49" connectable="0" vertex="1">
          <mxGeometry x="-0.75" y="-1" relative="1" as="geometry">
            <mxPoint as="offset" />
          </mxGeometry>
        </mxCell>
        <mxCell id="jNO9P9iNt-Y6tSNq4RsI-18" value="i &lt; n ?" style="rhombus;whiteSpace=wrap;html=1;" parent="1" vertex="1">
          <mxGeometry x="560" y="2100" width="200" height="80" as="geometry" />
        </mxCell>
        <mxCell id="gyfqeUNmZbh3x1LJD91C-50" value="" style="edgeStyle=orthogonalEdgeStyle;rounded=0;orthogonalLoop=1;jettySize=auto;html=1;" parent="1" source="jNO9P9iNt-Y6tSNq4RsI-19" target="gyfqeUNmZbh3x1LJD91C-48" edge="1">
          <mxGeometry relative="1" as="geometry" />
        </mxCell>
        <mxCell id="K8t3-viRsdJDfLJTbKqf-6" value="จริง" style="edgeLabel;html=1;align=center;verticalAlign=middle;resizable=0;points=[];" parent="gyfqeUNmZbh3x1LJD91C-50" connectable="0" vertex="1">
          <mxGeometry x="0.0853" relative="1" as="geometry">
            <mxPoint as="offset" />
          </mxGeometry>
        </mxCell>
        <mxCell id="K8t3-viRsdJDfLJTbKqf-15" style="edgeStyle=orthogonalEdgeStyle;rounded=0;orthogonalLoop=1;jettySize=auto;html=1;entryX=1;entryY=0.5;entryDx=0;entryDy=0;exitX=1;exitY=0.5;exitDx=0;exitDy=0;" parent="1" source="jNO9P9iNt-Y6tSNq4RsI-19" target="gyfqeUNmZbh3x1LJD91C-42" edge="1">
          <mxGeometry relative="1" as="geometry">
            <Array as="points">
              <mxPoint x="1130" y="2260" />
              <mxPoint x="1130" y="3360" />
            </Array>
          </mxGeometry>
        </mxCell>
        <mxCell id="K8t3-viRsdJDfLJTbKqf-16" value="เท็จ" style="edgeLabel;html=1;align=center;verticalAlign=middle;resizable=0;points=[];" parent="K8t3-viRsdJDfLJTbKqf-15" connectable="0" vertex="1">
          <mxGeometry x="-0.8657" y="1" relative="1" as="geometry">
            <mxPoint as="offset" />
          </mxGeometry>
        </mxCell>
        <mxCell id="jNO9P9iNt-Y6tSNq4RsI-19" value="arr[i] &lt; 2 ?" style="rhombus;whiteSpace=wrap;html=1;" parent="1" vertex="1">
          <mxGeometry x="560" y="2220" width="200" height="80" as="geometry" />
        </mxCell>
        <mxCell id="gyfqeUNmZbh3x1LJD91C-32" value="" style="edgeStyle=orthogonalEdgeStyle;rounded=0;orthogonalLoop=1;jettySize=auto;html=1;" parent="1" source="jNO9P9iNt-Y6tSNq4RsI-20" target="jNO9P9iNt-Y6tSNq4RsI-21" edge="1">
          <mxGeometry relative="1" as="geometry" />
        </mxCell>
        <mxCell id="jNO9P9iNt-Y6tSNq4RsI-20" value="พิมพ์ &quot; #&quot;" style="shape=parallelogram;perimeter=parallelogramPerimeter;whiteSpace=wrap;html=1;" parent="1" vertex="1">
          <mxGeometry x="570" y="2390" width="180" height="50" as="geometry" />
        </mxCell>
        <mxCell id="gyfqeUNmZbh3x1LJD91C-33" value="" style="edgeStyle=orthogonalEdgeStyle;rounded=0;orthogonalLoop=1;jettySize=auto;html=1;" parent="1" source="jNO9P9iNt-Y6tSNq4RsI-21" target="jNO9P9iNt-Y6tSNq4RsI-22" edge="1">
          <mxGeometry relative="1" as="geometry" />
        </mxCell>
        <mxCell id="jNO9P9iNt-Y6tSNq4RsI-21" value="i = i + 1" style="whiteSpace=wrap;html=1;" parent="1" vertex="1">
          <mxGeometry x="570" y="2490" width="180" height="50" as="geometry" />
        </mxCell>
        <mxCell id="gyfqeUNmZbh3x1LJD91C-55" value="" style="edgeStyle=orthogonalEdgeStyle;rounded=0;orthogonalLoop=1;jettySize=auto;html=1;" parent="1" source="jNO9P9iNt-Y6tSNq4RsI-22" target="gyfqeUNmZbh3x1LJD91C-53" edge="1">
          <mxGeometry relative="1" as="geometry" />
        </mxCell>
        <mxCell id="jNO9P9iNt-Y6tSNq4RsI-22" value="กำหนด j = 2" style="whiteSpace=wrap;html=1;" parent="1" vertex="1">
          <mxGeometry x="570" y="2620" width="180" height="50" as="geometry" />
        </mxCell>
        <mxCell id="gyfqeUNmZbh3x1LJD91C-35" value="" style="edgeStyle=orthogonalEdgeStyle;rounded=0;orthogonalLoop=1;jettySize=auto;html=1;" parent="1" source="jNO9P9iNt-Y6tSNq4RsI-23" target="jNO9P9iNt-Y6tSNq4RsI-25" edge="1">
          <mxGeometry relative="1" as="geometry" />
        </mxCell>
        <mxCell id="K8t3-viRsdJDfLJTbKqf-13" value="เท็จ" style="edgeLabel;html=1;align=center;verticalAlign=middle;resizable=0;points=[];" parent="gyfqeUNmZbh3x1LJD91C-35" connectable="0" vertex="1">
          <mxGeometry x="0.0606" y="3" relative="1" as="geometry">
            <mxPoint as="offset" />
          </mxGeometry>
        </mxCell>
        <mxCell id="gyfqeUNmZbh3x1LJD91C-36" value="" style="edgeStyle=orthogonalEdgeStyle;rounded=0;orthogonalLoop=1;jettySize=auto;html=1;" parent="1" source="jNO9P9iNt-Y6tSNq4RsI-23" target="jNO9P9iNt-Y6tSNq4RsI-24" edge="1">
          <mxGeometry relative="1" as="geometry" />
        </mxCell>
        <mxCell id="K8t3-viRsdJDfLJTbKqf-7" value="จริง" style="edgeLabel;html=1;align=center;verticalAlign=middle;resizable=0;points=[];" parent="gyfqeUNmZbh3x1LJD91C-36" connectable="0" vertex="1">
          <mxGeometry x="-0.1538" relative="1" as="geometry">
            <mxPoint as="offset" />
          </mxGeometry>
        </mxCell>
        <mxCell id="jNO9P9iNt-Y6tSNq4RsI-23" value="j×j ≤ arr[i] ?" style="rhombus;whiteSpace=wrap;html=1;" parent="1" vertex="1">
          <mxGeometry x="560" y="2750" width="200" height="80" as="geometry" />
        </mxCell>
        <mxCell id="gyfqeUNmZbh3x1LJD91C-37" value="" style="edgeStyle=orthogonalEdgeStyle;rounded=0;orthogonalLoop=1;jettySize=auto;html=1;" parent="1" source="jNO9P9iNt-Y6tSNq4RsI-24" target="jNO9P9iNt-Y6tSNq4RsI-26" edge="1">
          <mxGeometry relative="1" as="geometry" />
        </mxCell>
        <mxCell id="K8t3-viRsdJDfLJTbKqf-8" value="จริง" style="edgeLabel;html=1;align=center;verticalAlign=middle;resizable=0;points=[];" parent="gyfqeUNmZbh3x1LJD91C-37" connectable="0" vertex="1">
          <mxGeometry x="-0.4424" y="-1" relative="1" as="geometry">
            <mxPoint as="offset" />
          </mxGeometry>
        </mxCell>
        <mxCell id="jNO9P9iNt-Y6tSNq4RsI-24" value="arr[i] % j == 0 ?" style="rhombus;whiteSpace=wrap;html=1;" parent="1" vertex="1">
          <mxGeometry x="560" y="2883" width="200" height="80" as="geometry" />
        </mxCell>
        <mxCell id="gyfqeUNmZbh3x1LJD91C-52" style="edgeStyle=orthogonalEdgeStyle;rounded=0;orthogonalLoop=1;jettySize=auto;html=1;entryX=1;entryY=0.5;entryDx=0;entryDy=0;exitX=0.5;exitY=1;exitDx=0;exitDy=0;" parent="1" source="jNO9P9iNt-Y6tSNq4RsI-25" target="gyfqeUNmZbh3x1LJD91C-53" edge="1">
          <mxGeometry relative="1" as="geometry">
            <mxPoint x="1070" y="2660" as="targetPoint" />
            <Array as="points">
              <mxPoint x="940" y="2850" />
              <mxPoint x="1060" y="2850" />
              <mxPoint x="1060" y="2700" />
              <mxPoint x="765" y="2700" />
              <mxPoint x="765" y="2710" />
            </Array>
          </mxGeometry>
        </mxCell>
        <mxCell id="jNO9P9iNt-Y6tSNq4RsI-25" value="j = j + 1" style="whiteSpace=wrap;html=1;" parent="1" vertex="1">
          <mxGeometry x="860" y="2765" width="160" height="50" as="geometry" />
        </mxCell>
        <mxCell id="gyfqeUNmZbh3x1LJD91C-38" value="" style="edgeStyle=orthogonalEdgeStyle;rounded=0;orthogonalLoop=1;jettySize=auto;html=1;" parent="1" source="jNO9P9iNt-Y6tSNq4RsI-26" target="jNO9P9iNt-Y6tSNq4RsI-27" edge="1">
          <mxGeometry relative="1" as="geometry" />
        </mxCell>
        <mxCell id="K8t3-viRsdJDfLJTbKqf-9" value="จริง" style="edgeLabel;html=1;align=center;verticalAlign=middle;resizable=0;points=[];" parent="gyfqeUNmZbh3x1LJD91C-38" connectable="0" vertex="1">
          <mxGeometry x="-0.1989" y="-3" relative="1" as="geometry">
            <mxPoint as="offset" />
          </mxGeometry>
        </mxCell>
        <mxCell id="gyfqeUNmZbh3x1LJD91C-39" value="" style="edgeStyle=orthogonalEdgeStyle;rounded=0;orthogonalLoop=1;jettySize=auto;html=1;" parent="1" source="jNO9P9iNt-Y6tSNq4RsI-26" target="jNO9P9iNt-Y6tSNq4RsI-28" edge="1">
          <mxGeometry relative="1" as="geometry" />
        </mxCell>
        <mxCell id="K8t3-viRsdJDfLJTbKqf-14" value="เท็จ" style="edgeLabel;html=1;align=center;verticalAlign=middle;resizable=0;points=[];" parent="gyfqeUNmZbh3x1LJD91C-39" connectable="0" vertex="1">
          <mxGeometry x="-0.0343" relative="1" as="geometry">
            <mxPoint as="offset" />
          </mxGeometry>
        </mxCell>
        <mxCell id="jNO9P9iNt-Y6tSNq4RsI-26" value="j×j &gt; arr[i] ?" style="rhombus;whiteSpace=wrap;html=1;" parent="1" vertex="1">
          <mxGeometry x="560" y="3010" width="200" height="80" as="geometry" />
        </mxCell>
        <mxCell id="gyfqeUNmZbh3x1LJD91C-40" value="" style="edgeStyle=orthogonalEdgeStyle;rounded=0;orthogonalLoop=1;jettySize=auto;html=1;" parent="1" source="jNO9P9iNt-Y6tSNq4RsI-27" target="jNO9P9iNt-Y6tSNq4RsI-29" edge="1">
          <mxGeometry relative="1" as="geometry" />
        </mxCell>
        <mxCell id="jNO9P9iNt-Y6tSNq4RsI-27" value="พิมพ์ค่า arr[i]" style="shape=parallelogram;perimeter=parallelogramPerimeter;whiteSpace=wrap;html=1;" parent="1" vertex="1">
          <mxGeometry x="550" y="3150" width="220" height="50" as="geometry" />
        </mxCell>
        <mxCell id="gyfqeUNmZbh3x1LJD91C-45" style="edgeStyle=orthogonalEdgeStyle;rounded=0;orthogonalLoop=1;jettySize=auto;html=1;entryX=1;entryY=0.5;entryDx=0;entryDy=0;" parent="1" source="jNO9P9iNt-Y6tSNq4RsI-28" target="gyfqeUNmZbh3x1LJD91C-42" edge="1">
          <mxGeometry relative="1" as="geometry">
            <Array as="points">
              <mxPoint x="920" y="3360" />
            </Array>
          </mxGeometry>
        </mxCell>
        <mxCell id="jNO9P9iNt-Y6tSNq4RsI-28" value="พิมพ์ &quot; #&quot;" style="shape=parallelogram;perimeter=parallelogramPerimeter;whiteSpace=wrap;html=1;" parent="1" vertex="1">
          <mxGeometry x="840" y="3025" width="180" height="50" as="geometry" />
        </mxCell>
        <mxCell id="gyfqeUNmZbh3x1LJD91C-43" value="" style="edgeStyle=orthogonalEdgeStyle;rounded=0;orthogonalLoop=1;jettySize=auto;html=1;" parent="1" source="jNO9P9iNt-Y6tSNq4RsI-29" target="gyfqeUNmZbh3x1LJD91C-42" edge="1">
          <mxGeometry relative="1" as="geometry" />
        </mxCell>
        <mxCell id="jNO9P9iNt-Y6tSNq4RsI-29" value="i = i + 1" style="whiteSpace=wrap;html=1;" parent="1" vertex="1">
          <mxGeometry x="570" y="3260" width="180" height="50" as="geometry" />
        </mxCell>
        <mxCell id="jNO9P9iNt-Y6tSNq4RsI-31" value="Stop" style="ellipse;whiteSpace=wrap;html=1;" parent="1" vertex="1">
          <mxGeometry x="590" y="3410" width="140" height="50" as="geometry" />
        </mxCell>
        <mxCell id="gyfqeUNmZbh3x1LJD91C-11" value="" style="edgeStyle=orthogonalEdgeStyle;rounded=0;orthogonalLoop=1;jettySize=auto;html=1;" parent="1" source="gyfqeUNmZbh3x1LJD91C-9" target="jNO9P9iNt-Y6tSNq4RsI-5" edge="1">
          <mxGeometry relative="1" as="geometry" />
        </mxCell>
        <mxCell id="gyfqeUNmZbh3x1LJD91C-9" value="" style="ellipse;whiteSpace=wrap;html=1;aspect=fixed;" parent="1" vertex="1">
          <mxGeometry x="650" y="550" width="20" height="20" as="geometry" />
        </mxCell>
        <mxCell id="gyfqeUNmZbh3x1LJD91C-26" value="" style="edgeStyle=orthogonalEdgeStyle;rounded=0;orthogonalLoop=1;jettySize=auto;html=1;" parent="1" source="jNO9P9iNt-Y6tSNq4RsI-14" target="gyfqeUNmZbh3x1LJD91C-25" edge="1">
          <mxGeometry relative="1" as="geometry">
            <mxPoint x="660" y="1740" as="sourcePoint" />
            <mxPoint x="660" y="1800" as="targetPoint" />
          </mxGeometry>
        </mxCell>
        <mxCell id="gyfqeUNmZbh3x1LJD91C-27" value="" style="edgeStyle=orthogonalEdgeStyle;rounded=0;orthogonalLoop=1;jettySize=auto;html=1;" parent="1" source="gyfqeUNmZbh3x1LJD91C-25" target="jNO9P9iNt-Y6tSNq4RsI-16" edge="1">
          <mxGeometry relative="1" as="geometry" />
        </mxCell>
        <mxCell id="gyfqeUNmZbh3x1LJD91C-25" value="" style="ellipse;whiteSpace=wrap;html=1;aspect=fixed;" parent="1" vertex="1">
          <mxGeometry x="650" y="1800" width="20" height="20" as="geometry" />
        </mxCell>
        <mxCell id="gyfqeUNmZbh3x1LJD91C-44" value="" style="edgeStyle=orthogonalEdgeStyle;rounded=0;orthogonalLoop=1;jettySize=auto;html=1;" parent="1" source="gyfqeUNmZbh3x1LJD91C-42" target="jNO9P9iNt-Y6tSNq4RsI-31" edge="1">
          <mxGeometry relative="1" as="geometry" />
        </mxCell>
        <mxCell id="gyfqeUNmZbh3x1LJD91C-42" value="" style="ellipse;whiteSpace=wrap;html=1;aspect=fixed;" parent="1" vertex="1">
          <mxGeometry x="650" y="3350" width="20" height="20" as="geometry" />
        </mxCell>
        <mxCell id="gyfqeUNmZbh3x1LJD91C-51" value="" style="edgeStyle=orthogonalEdgeStyle;rounded=0;orthogonalLoop=1;jettySize=auto;html=1;" parent="1" source="gyfqeUNmZbh3x1LJD91C-48" target="jNO9P9iNt-Y6tSNq4RsI-20" edge="1">
          <mxGeometry relative="1" as="geometry" />
        </mxCell>
        <mxCell id="gyfqeUNmZbh3x1LJD91C-48" value="" style="ellipse;whiteSpace=wrap;html=1;aspect=fixed;" parent="1" vertex="1">
          <mxGeometry x="650" y="2338" width="20" height="20" as="geometry" />
        </mxCell>
        <mxCell id="gyfqeUNmZbh3x1LJD91C-56" value="" style="edgeStyle=orthogonalEdgeStyle;rounded=0;orthogonalLoop=1;jettySize=auto;html=1;" parent="1" source="gyfqeUNmZbh3x1LJD91C-53" target="jNO9P9iNt-Y6tSNq4RsI-23" edge="1">
          <mxGeometry relative="1" as="geometry" />
        </mxCell>
        <mxCell id="gyfqeUNmZbh3x1LJD91C-53" value="" style="ellipse;whiteSpace=wrap;html=1;aspect=fixed;" parent="1" vertex="1">
          <mxGeometry x="650" y="2700" width="20" height="20" as="geometry" />
        </mxCell>
      </root>
    </mxGraphModel>
  </diagram>
</mxfile>
